<svg width="56" height="56" viewBox="0 0 56 56" fill="none" xmlns="http://www.w3.org/2000/svg">
<g id="home">
<g id="home_2">
<path id="Vector (Stroke)" fill-rule="evenodd" clip-rule="evenodd" d="M26.7544 16.8534C26.9987 16.6905 27.3171 16.6905 27.5614 16.8534L37.2607 23.3195C37.463 23.4545 37.5846 23.6816 37.5846 23.9248V36.8571C37.5846 37.2589 37.2589 37.5846 36.8571 37.5846H30.7144C30.3126 37.5846 29.9869 37.2589 29.9869 36.8571C29.9869 36.4554 30.3126 36.1297 30.7144 36.1297H36.1297V24.3141L27.1579 18.3329L18.1861 24.3141V36.1297H23.9249C24.3266 36.1297 24.6523 36.4554 24.6523 36.8571C24.6523 37.2589 24.3266 37.5846 23.9249 37.5846H17.4586C17.0569 37.5846 16.7312 37.2589 16.7312 36.8571V23.9248C16.7312 23.6816 16.8528 23.4545 17.0551 23.3195L26.7544 16.8534Z" fill="white"/>
<path id="Vector (Stroke)_2" fill-rule="evenodd" clip-rule="evenodd" d="M23.1978 28.4508C23.1978 28.0491 23.5234 27.7234 23.9252 27.7234H30.3914C30.7931 27.7234 31.1188 28.0491 31.1188 28.4508V36.8568H29.6639V29.1783H24.6526V36.8568H23.1978V28.4508Z" fill="white"/>
</g>
</g>
</svg>
