<svg xmlns="http://www.w3.org/2000/svg" version="1.1" xmlns:xlink="http://www.w3.org/1999/xlink" xmlns:svgjs="http://svgjs.com/svgjs" width="2205" height="300" transform="matrix(1,0,0,1,0,0)">
  <text font-family="DM Sans" font-size="260" text-anchor="left" x="310" charspacing="20px">
    <tspan dy="239.20000000000002" x="310">bytebenders</tspan>
  </text>
  <path transform="matrix(1,0,0,1,148,149.33)" d="M-74.105,67.126A17.8926563762462,17.8926563762462,-36.610619933067525,0,0,-71.5,101L-47.518,106.938A29,29,270.7445453201552,0,0,-12.31,85.393L3.244,18.89A29,29,88.6929383896336,0,1,38.728,-2.586L41,-2A10.766092083361285,10.766092083361285,37.17313622327872,0,1,42.465,18.356ZM-67.126,-74.105A17.8926563762462,17.8926563762462,-36.610619933067525,0,0,-101,-71.5L-106.938,-47.518A29,29,-89.25545467984477,0,0,-85.393,-12.31L-18.89,3.244A29,29,88.69293838963361,0,1,2.586,38.728L2,41A10.766092083361274,10.766092083361274,-322.8268637767213,0,1,-18.356,42.465ZM74.105,-67.126A17.8926563762462,17.8926563762462,-36.610619933067525,0,0,71.5,-101L47.518,-106.938A29,29,-89.25545467984479,0,0,12.31,-85.393L-3.244,-18.89A29,29,-271.3070616103664,0,1,-38.728,2.586L-41,2A10.766092083361285,10.766092083361285,37.17313622327872,0,1,-42.465,-18.356ZM67.126,74.105A17.8926563762462,17.8926563762462,323.38938006693246,0,0,101,71.5L106.938,47.518A29,29,-89.25545467984479,0,0,85.393,12.31L18.89,-3.244A29,29,88.6929383896336,0,1,-2.586,-38.728L-2,-41A10.766092083361285,10.766092083361285,37.17313622327872,0,1,18.356,-42.465Z"/>
</svg>