<svg width="1837" height="300" viewBox="0 0 1837 300" fill="none" xmlns="http://www.w3.org/2000/svg">
<path d="M361.479 240.32C350.906 240.32 341.459 238.153 333.139 233.82C324.993 229.487 318.753 223.42 314.419 215.62L312.339 237.2H292.579V50H314.419V129.56C318.579 123.32 324.473 117.687 332.099 112.66C339.899 107.633 349.779 105.12 361.739 105.12C374.566 105.12 385.746 108.067 395.279 113.96C404.813 119.853 412.179 127.913 417.379 138.14C422.753 148.367 425.439 159.98 425.439 172.98C425.439 185.98 422.753 197.593 417.379 207.82C412.179 217.873 404.726 225.847 395.019 231.74C385.486 237.46 374.306 240.32 361.479 240.32ZM359.139 221.34C367.806 221.34 375.433 219.347 382.019 215.36C388.606 211.2 393.806 205.48 397.619 198.2C401.433 190.92 403.339 182.427 403.339 172.72C403.339 163.013 401.433 154.52 397.619 147.24C393.806 139.96 388.606 134.327 382.019 130.34C375.433 126.18 367.806 124.1 359.139 124.1C350.473 124.1 342.846 126.18 336.259 130.34C329.673 134.327 324.473 139.96 320.659 147.24C316.846 154.52 314.939 163.013 314.939 172.72C314.939 182.427 316.846 190.92 320.659 198.2C324.473 205.48 329.673 211.2 336.259 215.36C342.846 219.347 350.473 221.34 359.139 221.34ZM459.471 294.4L491.451 224.72H483.911L432.691 108.24H456.351L498.991 208.6L544.231 108.24H566.851L482.351 294.4H459.471ZM640.864 237.2C629.077 237.2 619.804 234.34 613.044 228.62C606.284 222.9 602.904 212.587 602.904 197.68V126.7H580.544V108.24H602.904L605.764 77.3H624.744V108.24H662.704V126.7H624.744V197.68C624.744 205.827 626.39 211.373 629.684 214.32C632.977 217.093 638.784 218.48 647.104 218.48H660.624V237.2H640.864ZM744.876 240.32C732.569 240.32 721.649 237.547 712.116 232C702.583 226.28 695.043 218.393 689.496 208.34C684.123 198.287 681.436 186.413 681.436 172.72C681.436 159.2 684.123 147.413 689.496 137.36C694.869 127.133 702.323 119.247 711.856 113.7C721.563 107.98 732.743 105.12 745.396 105.12C757.876 105.12 768.623 107.98 777.636 113.7C786.823 119.247 793.843 126.613 798.696 135.8C803.549 144.987 805.976 154.867 805.976 165.44C805.976 167.347 805.889 169.253 805.716 171.16C805.716 173.067 805.716 175.233 805.716 177.66H703.016C703.536 187.54 705.789 195.773 709.776 202.36C713.936 208.773 719.049 213.627 725.116 216.92C731.356 220.213 737.943 221.86 744.876 221.86C753.889 221.86 761.429 219.78 767.496 215.62C773.563 211.46 777.983 205.827 780.756 198.72H802.336C798.869 210.68 792.196 220.647 782.316 228.62C772.609 236.42 760.129 240.32 744.876 240.32ZM744.876 123.58C734.476 123.58 725.203 126.787 717.056 133.2C709.083 139.44 704.489 148.627 703.276 160.76H784.396C783.876 149.147 779.889 140.047 772.436 133.46C764.983 126.873 755.796 123.58 744.876 123.58ZM903.823 240.32C893.25 240.32 883.803 238.153 875.483 233.82C867.337 229.487 861.097 223.42 856.763 215.62L854.683 237.2H834.923V50H856.763V129.56C860.923 123.32 866.817 117.687 874.443 112.66C882.243 107.633 892.123 105.12 904.083 105.12C916.91 105.12 928.09 108.067 937.623 113.96C947.157 119.853 954.523 127.913 959.723 138.14C965.097 148.367 967.783 159.98 967.783 172.98C967.783 185.98 965.097 197.593 959.723 207.82C954.523 217.873 947.07 225.847 937.363 231.74C927.83 237.46 916.65 240.32 903.823 240.32ZM901.483 221.34C910.15 221.34 917.777 219.347 924.363 215.36C930.95 211.2 936.15 205.48 939.963 198.2C943.777 190.92 945.683 182.427 945.683 172.72C945.683 163.013 943.777 154.52 939.963 147.24C936.15 139.96 930.95 134.327 924.363 130.34C917.777 126.18 910.15 124.1 901.483 124.1C892.817 124.1 885.19 126.18 878.603 130.34C872.017 134.327 866.817 139.96 863.003 147.24C859.19 154.52 857.283 163.013 857.283 172.72C857.283 182.427 859.19 190.92 863.003 198.2C866.817 205.48 872.017 211.2 878.603 215.36C885.19 219.347 892.817 221.34 901.483 221.34ZM1056.16 240.32C1043.86 240.32 1032.94 237.547 1023.4 232C1013.87 226.28 1006.33 218.393 1000.78 208.34C995.412 198.287 992.725 186.413 992.725 172.72C992.725 159.2 995.412 147.413 1000.78 137.36C1006.16 127.133 1013.61 119.247 1023.14 113.7C1032.85 107.98 1044.03 105.12 1056.68 105.12C1069.16 105.12 1079.91 107.98 1088.92 113.7C1098.11 119.247 1105.13 126.613 1109.98 135.8C1114.84 144.987 1117.26 154.867 1117.26 165.44C1117.26 167.347 1117.18 169.253 1117 171.16C1117 173.067 1117 175.233 1117 177.66H1014.3C1014.82 187.54 1017.08 195.773 1021.06 202.36C1025.22 208.773 1030.34 213.627 1036.4 216.92C1042.64 220.213 1049.23 221.86 1056.16 221.86C1065.18 221.86 1072.72 219.78 1078.78 215.62C1084.85 211.46 1089.27 205.827 1092.04 198.72H1113.62C1110.16 210.68 1103.48 220.647 1093.6 228.62C1083.9 236.42 1071.42 240.32 1056.16 240.32ZM1056.16 123.58C1045.76 123.58 1036.49 126.787 1028.34 133.2C1020.37 139.44 1015.78 148.627 1014.56 160.76H1095.68C1095.16 149.147 1091.18 140.047 1083.72 133.46C1076.27 126.873 1067.08 123.58 1056.16 123.58ZM1146.21 237.2V108.24H1165.97L1167.27 131.38C1171.43 123.233 1177.41 116.82 1185.21 112.14C1193.01 107.46 1201.85 105.12 1211.73 105.12C1226.99 105.12 1239.12 109.8 1248.13 119.16C1257.32 128.347 1261.91 142.56 1261.91 161.8V237.2H1240.07V164.14C1240.07 137.273 1228.98 123.84 1206.79 123.84C1195.7 123.84 1186.43 127.913 1178.97 136.06C1171.69 144.033 1168.05 155.473 1168.05 170.38V237.2H1146.21ZM1353.5 240.32C1340.67 240.32 1329.41 237.373 1319.7 231.48C1310.17 225.587 1302.71 217.527 1297.34 207.3C1292.14 197.073 1289.54 185.46 1289.54 172.46C1289.54 159.46 1292.23 147.933 1297.6 137.88C1302.97 127.653 1310.43 119.68 1319.96 113.96C1329.49 108.067 1340.76 105.12 1353.76 105.12C1364.33 105.12 1373.69 107.287 1381.84 111.62C1389.99 115.953 1396.31 122.02 1400.82 129.82V50H1422.66V237.2H1402.9L1400.82 215.88C1396.66 222.12 1390.68 227.753 1382.88 232.78C1375.08 237.807 1365.29 240.32 1353.5 240.32ZM1355.84 221.34C1364.51 221.34 1372.13 219.347 1378.72 215.36C1385.48 211.2 1390.68 205.48 1394.32 198.2C1398.13 190.92 1400.04 182.427 1400.04 172.72C1400.04 163.013 1398.13 154.52 1394.32 147.24C1390.68 139.96 1385.48 134.327 1378.72 130.34C1372.13 126.18 1364.51 124.1 1355.84 124.1C1347.35 124.1 1339.72 126.18 1332.96 130.34C1326.37 134.327 1321.17 139.96 1317.36 147.24C1313.72 154.52 1311.9 163.013 1311.9 172.72C1311.9 182.427 1313.72 190.92 1317.36 198.2C1321.17 205.48 1326.37 211.2 1332.96 215.36C1339.72 219.347 1347.35 221.34 1355.84 221.34ZM1516.24 240.32C1503.94 240.32 1493.02 237.547 1483.48 232C1473.95 226.28 1466.41 218.393 1460.86 208.34C1455.49 198.287 1452.8 186.413 1452.8 172.72C1452.8 159.2 1455.49 147.413 1460.86 137.36C1466.24 127.133 1473.69 119.247 1483.22 113.7C1492.93 107.98 1504.11 105.12 1516.76 105.12C1529.24 105.12 1539.99 107.98 1549 113.7C1558.19 119.247 1565.21 126.613 1570.06 135.8C1574.92 144.987 1577.34 154.867 1577.34 165.44C1577.34 167.347 1577.26 169.253 1577.08 171.16C1577.08 173.067 1577.08 175.233 1577.08 177.66H1474.38C1474.9 187.54 1477.16 195.773 1481.14 202.36C1485.3 208.773 1490.42 213.627 1496.48 216.92C1502.72 220.213 1509.31 221.86 1516.24 221.86C1525.26 221.86 1532.8 219.78 1538.86 215.62C1544.93 211.46 1549.35 205.827 1552.12 198.72H1573.7C1570.24 210.68 1563.56 220.647 1553.68 228.62C1543.98 236.42 1531.5 240.32 1516.24 240.32ZM1516.24 123.58C1505.84 123.58 1496.57 126.787 1488.42 133.2C1480.45 139.44 1475.86 148.627 1474.64 160.76H1555.76C1555.24 149.147 1551.26 140.047 1543.8 133.46C1536.35 126.873 1527.16 123.58 1516.24 123.58ZM1606.29 237.2V108.24H1626.05L1627.87 132.94C1631.86 124.447 1637.92 117.687 1646.07 112.66C1654.22 107.633 1664.27 105.12 1676.23 105.12V128H1670.25C1662.62 128 1655.6 129.387 1649.19 132.16C1642.78 134.76 1637.66 139.267 1633.85 145.68C1630.04 152.093 1628.13 160.933 1628.13 172.2V237.2H1606.29ZM1750.14 240.32C1734.72 240.32 1721.89 236.42 1711.66 228.62C1701.44 220.82 1695.46 210.247 1693.72 196.9H1716.08C1717.47 203.66 1721.02 209.553 1726.74 214.58C1732.64 219.433 1740.52 221.86 1750.4 221.86C1759.59 221.86 1766.35 219.953 1770.68 216.14C1775.02 212.153 1777.18 207.473 1777.18 202.1C1777.18 194.3 1774.32 189.1 1768.6 186.5C1763.06 183.9 1755.17 181.56 1744.94 179.48C1738.01 178.093 1731.08 176.1 1724.14 173.5C1717.21 170.9 1711.4 167.26 1706.72 162.58C1702.04 157.727 1699.7 151.4 1699.7 143.6C1699.7 132.333 1703.86 123.147 1712.18 116.04C1720.68 108.76 1732.12 105.12 1746.5 105.12C1760.2 105.12 1771.38 108.587 1780.04 115.52C1788.88 122.28 1794 131.987 1795.38 144.64H1773.8C1772.94 138.053 1770.08 132.94 1765.22 129.3C1760.54 125.487 1754.22 123.58 1746.24 123.58C1738.44 123.58 1732.38 125.227 1728.04 128.52C1723.88 131.813 1721.8 136.147 1721.8 141.52C1721.8 146.72 1724.49 150.793 1729.86 153.74C1735.41 156.687 1742.86 159.2 1752.22 161.28C1760.2 163.013 1767.74 165.18 1774.84 167.78C1782.12 170.207 1788.02 173.933 1792.52 178.96C1797.2 183.813 1799.54 190.92 1799.54 200.28C1799.72 211.893 1795.3 221.513 1786.28 229.14C1777.44 236.593 1765.4 240.32 1750.14 240.32Z" fill="#FAF5EF"/>
<path d="M35.0009 216.456C31.4784 217.908 28.51 220.417 26.5178 223.627C24.5256 226.836 23.6109 230.583 23.9036 234.334C24.1964 238.085 25.6818 241.65 28.1487 244.521C30.6156 247.393 33.9384 249.426 37.6449 250.33L61.9858 256.268C65.769 257.191 69.7005 257.364 73.5523 256.778C77.4041 256.192 81.0994 254.859 84.4237 252.854C87.7481 250.85 90.6354 248.215 92.918 245.103C95.2006 241.99 96.8331 238.462 97.7208 234.723L113.508 168.22C114.401 164.458 116.048 160.909 118.352 157.783C120.657 154.656 123.573 152.015 126.928 150.014C130.283 148.014 134.01 146.694 137.89 146.132C141.77 145.571 145.725 145.779 149.523 146.744L151.829 147.33C154.044 147.894 156.025 149.128 157.49 150.86C158.955 152.592 159.832 154.733 159.996 156.982C160.161 159.23 159.604 161.473 158.406 163.394C157.207 165.314 155.427 166.816 153.316 167.686L35.0009 216.456ZM42.0844 75.225C40.6105 71.7544 38.0638 68.8298 34.8062 66.867C31.5487 64.9041 27.746 64.0029 23.9388 64.2914C20.1316 64.5798 16.5135 66.0433 13.5989 68.4738C10.6843 70.9043 8.62136 74.1782 7.70342 77.83L1.67654 101.812C0.739798 105.539 0.563714 109.413 1.15851 113.208C1.7533 117.003 3.10713 120.644 5.14143 123.919C7.17573 127.194 9.85 130.039 13.009 132.288C16.1681 134.537 19.749 136.145 23.544 137.02L91.0423 152.574C94.861 153.454 98.4628 155.077 101.636 157.348C104.809 159.618 107.49 162.491 109.52 165.796C111.551 169.102 112.891 172.774 113.461 176.597C114.031 180.42 113.82 184.317 112.84 188.058L112.245 190.33C111.673 192.513 110.42 194.464 108.662 195.908C106.905 197.352 104.731 198.216 102.449 198.377C100.166 198.539 97.89 197.991 95.9407 196.81C93.9914 195.629 92.4676 193.875 91.5843 191.795L42.0844 75.225ZM185.429 82.204C188.952 80.7519 191.92 78.2427 193.912 75.0332C195.904 71.8237 196.819 68.0771 196.526 64.326C196.234 60.5749 194.748 57.0102 192.281 54.1386C189.814 51.2669 186.492 49.2344 182.785 48.33L158.444 42.392C154.661 41.4691 150.729 41.2956 146.878 41.8816C143.026 42.4676 139.331 43.8015 136.006 45.8058C132.682 47.8101 129.795 50.4449 127.512 53.5574C125.229 56.6699 123.597 60.198 122.709 63.937L106.922 130.44C106.029 134.202 104.382 137.751 102.077 140.877C99.7729 144.004 96.8574 146.645 93.5022 148.646C90.1471 150.646 86.42 151.966 82.5398 152.528C78.6597 153.089 74.7048 152.881 70.9074 151.916L68.6014 151.33C66.3857 150.766 64.4054 149.532 62.9399 147.8C61.4745 146.069 60.5978 143.927 60.4335 141.678C60.2693 139.43 60.8257 137.187 62.0244 135.266C63.2231 133.346 65.0035 131.844 67.1145 130.974L185.429 82.204ZM178.346 223.435C179.819 226.906 182.366 229.83 185.624 231.793C188.881 233.756 192.684 234.657 196.491 234.369C200.298 234.08 203.916 232.617 206.831 230.186C209.746 227.756 211.809 224.482 212.727 220.83L218.753 196.848C219.69 193.121 219.866 189.247 219.271 185.452C218.677 181.657 217.323 178.016 215.289 174.741C213.254 171.466 210.58 168.621 207.421 166.372C204.262 164.123 200.681 162.515 196.886 161.64L129.388 146.086C125.569 145.206 121.967 143.583 118.794 141.312C115.621 139.042 112.94 136.169 110.91 132.864C108.879 129.558 107.539 125.886 106.969 122.063C106.399 118.24 106.61 114.343 107.59 110.602L108.185 108.33C108.757 106.147 110.01 104.196 111.768 102.752C113.525 101.308 115.699 100.444 117.981 100.283C120.264 100.121 122.54 100.669 124.489 101.85C126.439 103.031 127.962 104.785 128.846 106.865L178.346 223.435Z" fill="#FAF5EF"/>
</svg>
