<svg width="2205" height="300" viewBox="0 0 2205 300" fill="none" xmlns="http://www.w3.org/2000/svg">
<g clip-path="url(#clip0_55_3)">
<path d="M396.84 240.32C386.267 240.32 376.82 238.153 368.5 233.82C360.353 229.487 354.113 223.42 349.78 215.62L347.7 237.2H327.94V50H349.78V129.56C353.94 123.32 359.833 117.687 367.46 112.66C375.26 107.633 385.14 105.12 397.1 105.12C409.927 105.12 421.107 108.067 430.64 113.96C440.173 119.853 447.54 127.913 452.74 138.14C458.113 148.367 460.8 159.98 460.8 172.98C460.8 185.98 458.113 197.593 452.74 207.82C447.54 217.873 440.087 225.847 430.38 231.74C420.847 237.46 409.667 240.32 396.84 240.32ZM394.5 221.34C403.167 221.34 410.793 219.347 417.38 215.36C423.967 211.2 429.167 205.48 432.98 198.2C436.793 190.92 438.7 182.427 438.7 172.72C438.7 163.013 436.793 154.52 432.98 147.24C429.167 139.96 423.967 134.327 417.38 130.34C410.793 126.18 403.167 124.1 394.5 124.1C385.833 124.1 378.207 126.18 371.62 130.34C365.033 134.327 359.833 139.96 356.02 147.24C352.207 154.52 350.3 163.013 350.3 172.72C350.3 182.427 352.207 190.92 356.02 198.2C359.833 205.48 365.033 211.2 371.62 215.36C378.207 219.347 385.833 221.34 394.5 221.34ZM494.832 294.4L526.812 224.72H519.272L468.052 108.24H491.712L534.352 208.6L579.592 108.24H602.212L517.712 294.4H494.832ZM676.224 237.2C664.438 237.2 655.164 234.34 648.404 228.62C641.644 222.9 638.264 212.587 638.264 197.68V126.7H615.904V108.24H638.264L641.124 77.3H660.104V108.24H698.064V126.7H660.104V197.68C660.104 205.827 661.751 211.373 665.044 214.32C668.338 217.093 674.144 218.48 682.464 218.48H695.984V237.2H676.224ZM780.236 240.32C767.93 240.32 757.01 237.547 747.476 232C737.943 226.28 730.403 218.393 724.856 208.34C719.483 198.287 716.796 186.413 716.796 172.72C716.796 159.2 719.483 147.413 724.856 137.36C730.23 127.133 737.683 119.247 747.216 113.7C756.923 107.98 768.103 105.12 780.756 105.12C793.236 105.12 803.983 107.98 812.996 113.7C822.183 119.247 829.203 126.613 834.056 135.8C838.91 144.987 841.336 154.867 841.336 165.44C841.336 167.347 841.25 169.253 841.076 171.16C841.076 173.067 841.076 175.233 841.076 177.66H738.376C738.896 187.54 741.15 195.773 745.136 202.36C749.296 208.773 754.41 213.627 760.476 216.92C766.716 220.213 773.303 221.86 780.236 221.86C789.25 221.86 796.79 219.78 802.856 215.62C808.923 211.46 813.343 205.827 816.116 198.72H837.696C834.23 210.68 827.556 220.647 817.676 228.62C807.97 236.42 795.49 240.32 780.236 240.32ZM780.236 123.58C769.836 123.58 760.563 126.787 752.416 133.2C744.443 139.44 739.85 148.627 738.636 160.76H819.756C819.236 149.147 815.25 140.047 807.796 133.46C800.343 126.873 791.156 123.58 780.236 123.58ZM939.184 240.32C928.61 240.32 919.164 238.153 910.844 233.82C902.697 229.487 896.457 223.42 892.124 215.62L890.044 237.2H870.284V50H892.124V129.56C896.284 123.32 902.177 117.687 909.804 112.66C917.604 107.633 927.484 105.12 939.444 105.12C952.27 105.12 963.45 108.067 972.984 113.96C982.517 119.853 989.884 127.913 995.084 138.14C1000.46 148.367 1003.14 159.98 1003.14 172.98C1003.14 185.98 1000.46 197.593 995.084 207.82C989.884 217.873 982.43 225.847 972.724 231.74C963.19 237.46 952.01 240.32 939.184 240.32ZM936.844 221.34C945.51 221.34 953.137 219.347 959.724 215.36C966.31 211.2 971.51 205.48 975.324 198.2C979.137 190.92 981.044 182.427 981.044 172.72C981.044 163.013 979.137 154.52 975.324 147.24C971.51 139.96 966.31 134.327 959.724 130.34C953.137 126.18 945.51 124.1 936.844 124.1C928.177 124.1 920.55 126.18 913.964 130.34C907.377 134.327 902.177 139.96 898.364 147.24C894.55 154.52 892.644 163.013 892.644 172.72C892.644 182.427 894.55 190.92 898.364 198.2C902.177 205.48 907.377 211.2 913.964 215.36C920.55 219.347 928.177 221.34 936.844 221.34ZM1091.53 240.32C1079.22 240.32 1068.3 237.547 1058.77 232C1049.23 226.28 1041.69 218.393 1036.15 208.34C1030.77 198.287 1028.09 186.413 1028.09 172.72C1028.09 159.2 1030.77 147.413 1036.15 137.36C1041.52 127.133 1048.97 119.247 1058.51 113.7C1068.21 107.98 1079.39 105.12 1092.05 105.12C1104.53 105.12 1115.27 107.98 1124.29 113.7C1133.47 119.247 1140.49 126.613 1145.35 135.8C1150.2 144.987 1152.63 154.867 1152.63 165.44C1152.63 167.347 1152.54 169.253 1152.37 171.16C1152.37 173.067 1152.37 175.233 1152.37 177.66H1049.67C1050.19 187.54 1052.44 195.773 1056.43 202.36C1060.59 208.773 1065.7 213.627 1071.77 216.92C1078.01 220.213 1084.59 221.86 1091.53 221.86C1100.54 221.86 1108.08 219.78 1114.15 215.62C1120.21 211.46 1124.63 205.827 1127.41 198.72H1148.99C1145.52 210.68 1138.85 220.647 1128.97 228.62C1119.26 236.42 1106.78 240.32 1091.53 240.32ZM1091.53 123.58C1081.13 123.58 1071.85 126.787 1063.71 133.2C1055.73 139.44 1051.14 148.627 1049.93 160.76H1131.05C1130.53 149.147 1126.54 140.047 1119.09 133.46C1111.63 126.873 1102.45 123.58 1091.53 123.58ZM1181.57 237.2V108.24H1201.33L1202.63 131.38C1206.79 123.233 1212.77 116.82 1220.57 112.14C1228.37 107.46 1237.21 105.12 1247.09 105.12C1262.35 105.12 1274.48 109.8 1283.49 119.16C1292.68 128.347 1297.27 142.56 1297.27 161.8V237.2H1275.43V164.14C1275.43 137.273 1264.34 123.84 1242.15 123.84C1231.06 123.84 1221.79 127.913 1214.33 136.06C1207.05 144.033 1203.41 155.473 1203.41 170.38V237.2H1181.57ZM1388.86 240.32C1376.04 240.32 1364.77 237.373 1355.06 231.48C1345.53 225.587 1338.08 217.527 1332.7 207.3C1327.5 197.073 1324.9 185.46 1324.9 172.46C1324.9 159.46 1327.59 147.933 1332.96 137.88C1338.34 127.653 1345.79 119.68 1355.32 113.96C1364.86 108.067 1376.12 105.12 1389.12 105.12C1399.7 105.12 1409.06 107.287 1417.2 111.62C1425.35 115.953 1431.68 122.02 1436.18 129.82V50H1458.02V237.2H1438.26L1436.18 215.88C1432.02 222.12 1426.04 227.753 1418.24 232.78C1410.44 237.807 1400.65 240.32 1388.86 240.32ZM1391.2 221.34C1399.87 221.34 1407.5 219.347 1414.08 215.36C1420.84 211.2 1426.04 205.48 1429.68 198.2C1433.5 190.92 1435.4 182.427 1435.4 172.72C1435.4 163.013 1433.5 154.52 1429.68 147.24C1426.04 139.96 1420.84 134.327 1414.08 130.34C1407.5 126.18 1399.87 124.1 1391.2 124.1C1382.71 124.1 1375.08 126.18 1368.32 130.34C1361.74 134.327 1356.54 139.96 1352.72 147.24C1349.08 154.52 1347.26 163.013 1347.26 172.72C1347.26 182.427 1349.08 190.92 1352.72 198.2C1356.54 205.48 1361.74 211.2 1368.32 215.36C1375.08 219.347 1382.71 221.34 1391.2 221.34ZM1551.6 240.32C1539.3 240.32 1528.38 237.547 1518.84 232C1509.31 226.28 1501.77 218.393 1496.22 208.34C1490.85 198.287 1488.16 186.413 1488.16 172.72C1488.16 159.2 1490.85 147.413 1496.22 137.36C1501.6 127.133 1509.05 119.247 1518.58 113.7C1528.29 107.98 1539.47 105.12 1552.12 105.12C1564.6 105.12 1575.35 107.98 1584.36 113.7C1593.55 119.247 1600.57 126.613 1605.42 135.8C1610.28 144.987 1612.7 154.867 1612.7 165.44C1612.7 167.347 1612.62 169.253 1612.44 171.16C1612.44 173.067 1612.44 175.233 1612.44 177.66H1509.74C1510.26 187.54 1512.52 195.773 1516.5 202.36C1520.66 208.773 1525.78 213.627 1531.84 216.92C1538.08 220.213 1544.67 221.86 1551.6 221.86C1560.62 221.86 1568.16 219.78 1574.22 215.62C1580.29 211.46 1584.71 205.827 1587.48 198.72H1609.06C1605.6 210.68 1598.92 220.647 1589.04 228.62C1579.34 236.42 1566.86 240.32 1551.6 240.32ZM1551.6 123.58C1541.2 123.58 1531.93 126.787 1523.78 133.2C1515.81 139.44 1511.22 148.627 1510 160.76H1591.12C1590.6 149.147 1586.62 140.047 1579.16 133.46C1571.71 126.873 1562.52 123.58 1551.6 123.58ZM1641.65 237.2V108.24H1661.41L1663.23 132.94C1667.22 124.447 1673.28 117.687 1681.43 112.66C1689.58 107.633 1699.63 105.12 1711.59 105.12V128H1705.61C1697.98 128 1690.96 129.387 1684.55 132.16C1678.14 134.76 1673.02 139.267 1669.21 145.68C1665.4 152.093 1663.49 160.933 1663.49 172.2V237.2H1641.65ZM1785.5 240.32C1770.08 240.32 1757.25 236.42 1747.02 228.62C1736.8 220.82 1730.82 210.247 1729.08 196.9H1751.44C1752.83 203.66 1756.38 209.553 1762.1 214.58C1768 219.433 1775.88 221.86 1785.76 221.86C1794.95 221.86 1801.71 219.953 1806.04 216.14C1810.38 212.153 1812.54 207.473 1812.54 202.1C1812.54 194.3 1809.68 189.1 1803.96 186.5C1798.42 183.9 1790.53 181.56 1780.3 179.48C1773.37 178.093 1766.44 176.1 1759.5 173.5C1752.57 170.9 1746.76 167.26 1742.08 162.58C1737.4 157.727 1735.06 151.4 1735.06 143.6C1735.06 132.333 1739.22 123.147 1747.54 116.04C1756.04 108.76 1767.48 105.12 1781.86 105.12C1795.56 105.12 1806.74 108.587 1815.4 115.52C1824.24 122.28 1829.36 131.987 1830.74 144.64H1809.16C1808.3 138.053 1805.44 132.94 1800.58 129.3C1795.9 125.487 1789.58 123.58 1781.6 123.58C1773.8 123.58 1767.74 125.227 1763.4 128.52C1759.24 131.813 1757.16 136.147 1757.16 141.52C1757.16 146.72 1759.85 150.793 1765.22 153.74C1770.77 156.687 1778.22 159.2 1787.58 161.28C1795.56 163.013 1803.1 165.18 1810.2 167.78C1817.48 170.207 1823.38 173.933 1827.88 178.96C1832.56 183.813 1834.9 190.92 1834.9 200.28C1835.08 211.893 1830.66 221.513 1821.64 229.14C1812.8 236.593 1800.76 240.32 1785.5 240.32Z" fill="#FAF5EF"/>
<path d="M73.895 216.456C70.4244 217.908 67.4998 220.417 65.537 223.627C63.5741 226.836 62.6729 230.583 62.9614 234.334C63.2498 238.085 64.7133 241.65 67.1438 244.521C69.5744 247.393 72.8482 249.426 76.5 250.33L100.482 256.268C104.209 257.191 108.083 257.364 111.878 256.778C115.673 256.192 119.314 254.859 122.589 252.854C125.864 250.85 128.709 248.215 130.958 245.103C133.207 241.99 134.815 238.462 135.69 234.723L151.244 168.22C152.124 164.458 153.747 160.909 156.018 157.783C158.288 154.656 161.161 152.015 164.466 150.014C167.772 148.014 171.444 146.694 175.267 146.132C179.09 145.571 182.987 145.779 186.728 146.744L189 147.33C191.183 147.894 193.134 149.128 194.578 150.86C196.022 152.592 196.886 154.733 197.047 156.982C197.209 159.23 196.661 161.473 195.48 163.394C194.299 165.314 192.545 166.816 190.465 167.686L73.895 216.456ZM80.874 75.225C79.4219 71.7544 76.9127 68.8298 73.7032 66.867C70.4937 64.9041 66.7471 64.0029 62.996 64.2914C59.245 64.5798 55.6802 66.0433 52.8086 68.4738C49.9369 70.9043 47.9044 74.1782 47 77.83L41.062 101.812C40.1391 105.539 39.9656 109.413 40.5516 113.208C41.1376 117.003 42.4715 120.644 44.4758 123.919C46.4801 127.194 49.115 130.039 52.2274 132.288C55.3399 134.537 58.868 136.145 62.607 137.02L129.11 152.574C132.872 153.454 136.421 155.077 139.548 157.348C142.674 159.618 145.315 162.491 147.316 165.796C149.316 169.102 150.636 172.774 151.198 176.597C151.76 180.42 151.551 184.317 150.586 188.058L150 190.33C149.436 192.513 148.202 194.464 146.47 195.908C144.739 197.352 142.597 198.216 140.348 198.377C138.1 198.539 135.857 197.991 133.936 196.81C132.016 195.629 130.514 193.875 129.644 191.795L80.874 75.225ZM222.105 82.204C225.576 80.7519 228.5 78.2427 230.463 75.0332C232.426 71.8237 233.327 68.0771 233.039 64.326C232.75 60.5749 231.287 57.0102 228.856 54.1386C226.426 51.2669 223.152 49.2344 219.5 48.33L195.518 42.392C191.791 41.4691 187.917 41.2956 184.122 41.8816C180.327 42.4676 176.686 43.8015 173.411 45.8058C170.136 47.8101 167.291 50.4449 165.042 53.5574C162.793 56.6699 161.185 60.198 160.31 63.937L144.756 130.44C143.876 134.202 142.253 137.751 139.983 140.877C137.712 144.004 134.839 146.645 131.534 148.646C128.228 150.646 124.556 151.966 120.733 152.528C116.91 153.089 113.013 152.881 109.272 151.916L107 151.33C104.817 150.766 102.866 149.532 101.422 147.8C99.9782 146.069 99.1145 143.927 98.9526 141.678C98.7908 139.43 99.339 137.187 100.52 135.266C101.701 133.346 103.455 131.844 105.535 130.974L222.105 82.204ZM215.126 223.435C216.578 226.906 219.087 229.83 222.297 231.793C225.506 233.756 229.253 234.657 233.004 234.369C236.755 234.08 240.32 232.617 243.191 230.186C246.063 227.756 248.096 224.482 249 220.83L254.938 196.848C255.861 193.121 256.034 189.247 255.448 185.452C254.862 181.657 253.529 178.016 251.524 174.741C249.52 171.466 246.885 168.621 243.773 166.372C240.66 164.123 237.132 162.515 233.393 161.64L166.89 146.086C163.128 145.206 159.579 143.583 156.453 141.312C153.326 139.042 150.685 136.169 148.684 132.864C146.684 129.558 145.364 125.886 144.802 122.063C144.241 118.24 144.449 114.343 145.414 110.602L146 108.33C146.564 106.147 147.798 104.196 149.53 102.752C151.262 101.308 153.403 100.444 155.652 100.283C157.9 100.121 160.143 100.669 162.064 101.85C163.984 103.031 165.486 104.785 166.356 106.865L215.126 223.435Z" fill="#FAF5EF"/>
</g>
<defs>
<clipPath id="clip0_55_3">
<rect width="2205" height="300" fill="white"/>
</clipPath>
</defs>
</svg>
